<svg width="250" height="281" viewBox="0 0 250 281" fill="none" xmlns="http://www.w3.org/2000/svg">
<path fill-rule="evenodd" clip-rule="evenodd" d="M28.2493 74.5666L125.097 129.908L221.944 74.5666L125.097 19.2251L28.2493 74.5666ZM5.60471 66.7389L120.624 1.01364C125.097 -1.26706 129.57 1.01364 129.57 1.01364L244.589 66.7389V82.3946L129.57 148.12H120.624C120.624 148.12 47.7529 106.676 1.06051 80.1206C-2.92449 71.1066 5.60471 66.7389 5.60471 66.7389Z" fill="black"/>
<path fill-rule="evenodd" clip-rule="evenodd" d="M244.62 66.7701C247.399 68.3832 249.11 71.3537 249.11 74.5677V206.019C249.11 209.254 247.377 212.241 244.568 213.846L129.548 279.572C126.758 281.166 123.33 281.155 120.55 279.542C120.447 279.481 120.344 279.419 120.244 279.355C117.645 277.706 116.06 274.838 116.06 271.744V145.805V140.293C116.06 137.058 117.793 134.071 120.602 132.466L235.622 66.7401C238.412 65.1456 241.84 65.157 244.62 66.7701ZM134.091 145.525V256.208L231.079 200.787V90.1036L134.091 145.525Z" fill="black"/>
<path d="M120.244 279.355C117.645 277.706 116.06 274.838 116.06 271.744V145.805L1.6748 211.295L120.244 279.355Z" fill="black"/>
</svg>
