<svg width="548" height="110" viewBox="535 11 548 110" fill="none" xmlns="http://www.w3.org/2000/svg">
<path fill-rule="evenodd" clip-rule="evenodd" d="M546.096 40.2148L584.137 61.8973L622.178 40.2148L584.137 18.5323L546.096 40.2148ZM537.202 37.148L582.38 11.3972C584.137 10.5036 585.894 11.3972 585.894 11.3972L631.073 37.148V43.2817L585.894 69.0325H582.38C582.38 69.0325 553.757 52.795 535.417 42.3907C533.851 38.8591 537.202 37.148 537.202 37.148Z" fill="white"/>
<path fill-rule="evenodd" clip-rule="evenodd" d="M631.085 37.1602C632.177 37.7922 632.849 38.9561 632.849 40.2153V91.7169C632.849 92.9845 632.168 94.1549 631.065 94.7838L585.886 120.535C584.79 121.159 583.443 121.155 582.352 120.523C582.311 120.499 582.271 120.475 582.231 120.45C581.211 119.804 580.588 118.68 580.588 117.468V68.1255V65.9661C580.588 64.6985 581.269 63.5281 582.372 62.8992L627.551 37.1484C628.647 36.5237 629.993 36.5282 631.085 37.1602ZM587.67 68.016V111.381L625.767 89.6671V46.302L587.67 68.016Z" fill="white"/>
<path d="M582.231 120.45C581.211 119.804 580.588 118.68 580.588 117.468V68.1255L535.658 93.784L582.231 120.45Z" fill="white"/>
<path d="M669.487 91.7415C672.096 91.7415 673.93 91.038 674.988 89.6309C676.046 88.2238 676.575 85.902 676.575 82.6657V31.5879H692.446V83.4044C692.446 90.7214 690.718 96.2442 687.261 99.9731C683.876 103.632 679.009 105.461 672.661 105.461H661.763V91.7415H669.487Z" fill="white"/>
<path d="M754.384 105.461H739.678V98.0735C738.197 100.677 736.01 102.717 733.118 104.194C730.297 105.601 727.052 106.305 723.384 106.305C719.505 106.305 716.049 105.426 713.016 103.667C710.053 101.908 707.726 99.4454 706.033 96.2794C704.411 93.1134 703.6 89.4902 703.6 85.4096V52.2723H718.412V82.138C718.412 85.3744 719.364 88.0479 721.268 90.1585C723.173 92.1988 725.642 93.219 728.675 93.219C730.791 93.219 732.66 92.7265 734.282 91.7415C735.975 90.6862 737.28 89.2791 738.197 87.5202C739.184 85.691 739.678 83.6507 739.678 81.3993V52.2723H754.384V105.461Z" fill="white"/>
<path d="M766.434 52.2723H781.141V105.461H766.434V52.2723ZM781.67 29.1606V44.6739H766.011V29.1606H781.67Z" fill="white"/>
<path d="M817.846 106.305C812.415 106.305 807.619 105.109 803.457 102.717C799.296 100.254 796.051 96.9478 793.724 92.7968C791.467 88.6459 790.338 84.0025 790.338 78.8665C790.338 73.7306 791.467 69.0872 793.724 64.9362C796.051 60.7149 799.296 57.4082 803.457 55.0161C807.619 52.6241 812.415 51.428 817.846 51.428C822.502 51.428 826.734 52.3075 830.543 54.0663C834.422 55.8252 837.526 58.2876 839.853 61.4536C842.251 64.5493 843.592 68.1374 843.874 72.218H829.061C828.638 69.8259 827.404 67.8559 825.358 66.3081C823.313 64.7603 820.95 63.9864 818.27 63.9864C815.66 63.9864 813.403 64.6196 811.498 65.886C809.594 67.1524 808.148 68.9113 807.16 71.1626C806.173 73.414 805.679 75.982 805.679 78.8665C805.679 83.2989 806.808 86.887 809.065 89.6309C811.322 92.3044 814.461 93.6411 818.481 93.6411C821.162 93.6411 823.489 92.9376 825.464 91.5305C827.439 90.053 828.709 88.083 829.273 85.6206H844.191C843.768 89.5605 842.322 93.1134 839.853 96.2794C837.385 99.375 834.211 101.837 830.331 103.667C826.522 105.426 822.361 106.305 817.846 106.305Z" fill="white"/>
<path d="M877.148 106.305C871.365 106.305 866.392 105.003 862.23 102.4C858.139 99.7268 855.036 96.2794 852.92 92.0581C850.804 87.8368 849.746 83.4044 849.746 78.761C849.746 74.0472 850.733 69.6148 852.708 65.4639C854.683 61.3129 857.646 57.9359 861.596 55.3327C865.545 52.7296 870.377 51.428 876.09 51.428C882.015 51.428 886.953 52.6944 890.903 55.2272C894.853 57.76 897.745 60.9963 899.578 64.9362C901.483 68.8761 902.435 73.0271 902.435 77.3891C902.365 78.9369 902.294 80.5199 902.223 82.138H858.316V72.8512H887.729C887.517 69.7555 886.353 67.2228 884.237 65.2528C882.192 63.2125 879.476 62.1924 876.09 62.1924C873.41 62.1924 871.118 62.7552 869.213 63.8809C867.379 65.0066 866.004 66.7654 865.087 69.1575C864.17 71.5496 863.712 74.6804 863.712 78.5499C863.712 81.7159 864.241 84.4949 865.299 86.887C866.357 89.2087 867.873 91.038 869.848 92.3747C871.894 93.6411 874.327 94.2743 877.148 94.2743C880.111 94.2743 882.544 93.7115 884.449 92.5858C886.353 91.3897 887.588 89.666 888.152 87.4147H902.541C901.906 91.2139 900.39 94.5557 897.991 97.4403C895.664 100.254 892.701 102.435 889.104 103.983C885.507 105.531 881.522 106.305 877.148 106.305Z" fill="white"/>
<path d="M941.116 106.305C938.083 106.305 935.261 105.742 932.651 104.617C930.042 103.42 927.996 101.767 926.515 99.6565V105.461H911.808V29.1606H926.515V57.8655C928.067 55.8252 930.112 54.2422 932.651 53.1165C935.191 51.9909 938.083 51.428 941.327 51.428C946.476 51.428 950.92 52.5537 954.658 54.8051C958.397 57.0564 961.253 60.2576 963.228 64.4085C965.274 68.5595 966.296 73.3788 966.296 78.8665C966.296 84.3542 965.274 89.1736 963.228 93.3245C961.253 97.4051 958.361 100.606 954.552 102.928C950.744 105.179 946.265 106.305 941.116 106.305ZM938.682 93.6411C941.292 93.6411 943.584 93.0431 945.559 91.8471C947.534 90.651 949.051 88.9273 950.109 86.6759C951.167 84.4246 951.696 81.8214 951.696 78.8665C951.696 74.3638 950.497 70.7757 948.099 68.1022C945.771 65.3583 942.632 63.9864 938.682 63.9864C936.072 63.9864 933.78 64.6196 931.805 65.886C929.83 67.082 928.314 68.8057 927.256 71.0571C926.198 73.3085 925.669 75.9116 925.669 78.8665C925.669 83.2989 926.868 86.887 929.266 89.6309C931.664 92.3044 934.803 93.6411 938.682 93.6411Z" fill="white"/>
<path d="M1000.74 106.305C995.378 106.305 990.547 105.109 986.244 102.717C982.012 100.325 978.662 97.0533 976.193 92.9024C973.795 88.7514 972.596 84.0728 972.596 78.8665C972.596 73.6602 973.795 68.9816 976.193 64.8307C978.662 60.6797 982.012 57.4082 986.244 55.0161C990.547 52.6241 995.378 51.428 1000.74 51.428C1006.1 51.428 1010.9 52.6241 1015.13 55.0161C1019.43 57.4082 1022.78 60.6797 1025.18 64.8307C1027.65 68.9816 1028.88 73.6602 1028.88 78.8665C1028.88 84.0728 1027.65 88.7514 1025.18 92.9024C1022.78 97.0533 1019.43 100.325 1015.13 102.717C1010.9 105.109 1006.1 106.305 1000.74 106.305ZM1000.74 93.6411C1003.35 93.6411 1005.64 93.0431 1007.62 91.8471C1009.66 90.5807 1011.25 88.8218 1012.38 86.5704C1013.51 84.3191 1014.07 81.7511 1014.07 78.8665C1014.07 75.9116 1013.51 73.3437 1012.38 71.1626C1011.25 68.9113 1009.66 67.1524 1007.62 65.886C1005.64 64.6196 1003.35 63.9864 1000.74 63.9864C998.129 63.9864 995.802 64.6196 993.756 65.886C991.781 67.1524 990.229 68.9113 989.101 71.1626C987.972 73.3437 987.408 75.9116 987.408 78.8665C987.408 81.7511 987.972 84.3191 989.101 86.5704C990.229 88.8218 991.781 90.5807 993.756 91.8471C995.802 93.0431 998.129 93.6411 1000.74 93.6411Z" fill="white"/>
<path d="M1028.51 105.461L1065.44 52.2723H1081.62L1044.28 105.461H1028.51ZM1067.24 105.461L1029.89 52.2723H1046.08L1083 105.461H1067.24Z" fill="white"/>
</svg>
